# xmcd
#
# Track frame offsets:
#	150
#	15147
#	29225
#	43350
#	60457
#	78777
#	90145
#	105820
#	119045
#	135905
#	150450
#	168347
#	184922
#	199640
#	216097
#	235050
#	252512
#	268530
#	284375
#	300660
#
# Disc length: 4215 seconds
#
# Revision: 0
# Processed by: cddbd v1.5.1PL0 Copyright (c) Steve Scherf et al.
# Submitted via: EasyCDDAExtractor 8.0.1.1
#
DISCID=01107514
DTITLE=Anne Murray - The Signature Series Vol. 9
DYEAR=1900
DGENRE=
TTITLE0=That's Not The Way (It's S'Posed To Be)
TTITLE1=I'm Not Afraid Anymore
TTITLE2=A Little Good News
TTITLE3=The More We Try
TTITLE4=Come On Love
TTITLE5=Come To Me
TTITLE6=Sentimental Favorite
TTITLE7=Just Another Woman In Love
TTITLE8=When I Can't Have You
TTITLE9=Heart Stealer
TTITLE10=Once You've Had It
TTITLE11=Time Don't Run Out On Me
TTITLE12=I Don't Think I'm Ready For You
TTITLE13=Let Your Heart Do The Talking
TTITLE14=You Haven't Heard The Last Of Me
TTITLE15=Nobody Loves Me Like You Do
TTITLE16=I Should Know By Now
TTITLE17=Love You Out Of Your Mind
TTITLE18=Take Good Care Of My Heart
TTITLE19=Our Love
EXTD=
EXTT0=
EXTT1=
EXTT2=
EXTT3=
EXTT4=
EXTT5=
EXTT6=
EXTT7=
EXTT8=
EXTT9=
EXTT10=
EXTT11=
EXTT12=
EXTT13=
EXTT14=
EXTT15=
EXTT16=
EXTT17=
EXTT18=
EXTT19=
PLAYORDER=
